<svg width="40" height="40" viewBox="0 0 40 40" fill="none" xmlns="http://www.w3.org/2000/svg">
<g clip-path="url(#clip0_1_226)">
<path d="M36.4781 9.94676C36.4045 9.84803 36.3121 9.76478 36.2063 9.70176C36.1005 9.63874 35.9833 9.59719 35.8614 9.57949C35.7395 9.56179 35.6153 9.56828 35.4959 9.59859C35.3765 9.6289 35.2643 9.68243 35.1656 9.75614L20.0437 21.0436C19.9897 21.0842 19.9239 21.1061 19.8562 21.1061C19.7886 21.1061 19.7228 21.0842 19.6687 21.0436L4.84375 9.70614C4.74587 9.63145 4.63424 9.57677 4.51523 9.54522C4.39623 9.51367 4.27217 9.50587 4.15015 9.52227C4.02813 9.53866 3.91053 9.57893 3.80407 9.64077C3.69761 9.70262 3.60437 9.78482 3.52968 9.8827C3.45499 9.98057 3.40031 10.0922 3.36877 10.2112C3.33722 10.3302 3.32942 10.4543 3.34581 10.5763C3.36221 10.6983 3.40248 10.8159 3.46432 10.9224C3.52616 11.0288 3.60837 11.1221 3.70625 11.1968L15.3625 20.1124L3.83437 28.7999C3.73506 28.874 3.65131 28.9669 3.5879 29.0733C3.5245 29.1798 3.48268 29.2976 3.46483 29.4202C3.44699 29.5428 3.45346 29.6678 3.48389 29.7879C3.51432 29.908 3.56811 30.0209 3.64218 30.1202C3.71626 30.2195 3.80917 30.3033 3.91561 30.3667C4.02205 30.4301 4.13993 30.4719 4.26254 30.4897C4.38514 30.5076 4.51006 30.5011 4.63015 30.4707C4.75025 30.4402 4.86318 30.3865 4.9625 30.3124L16.9094 21.2936L18.5281 22.5436C18.9056 22.8326 19.3668 22.9907 19.8422 22.9941C20.3175 22.9974 20.781 22.8459 21.1625 22.5624L22.8625 21.2936L34.95 30.3124C35.0487 30.3861 35.1609 30.4396 35.2803 30.4698C35.3997 30.5001 35.5239 30.5066 35.6457 30.4889C35.7676 30.4712 35.8848 30.4297 35.9906 30.3667C36.0965 30.3037 36.1888 30.2205 36.2625 30.1218C36.3362 30.0231 36.3897 29.9108 36.4199 29.7915C36.4502 29.6721 36.4567 29.5479 36.439 29.426C36.4213 29.3042 36.3798 29.187 36.3168 29.0811C36.2538 28.9753 36.1706 28.8829 36.0719 28.8093L24.4281 20.1093L36.2875 11.2499C36.4842 11.1013 36.6145 10.8813 36.6502 10.6374C36.6858 10.3935 36.624 10.1454 36.4781 9.94676Z" fill="#CEB2EA"/>
<path d="M35.3125 5.9375H4.6875C3.4443 5.9375 2.25201 6.43136 1.37294 7.31044C0.49386 8.18951 0 9.3818 0 10.625L0 29.375C0 30.6182 0.49386 31.8105 1.37294 32.6896C2.25201 33.5686 3.4443 34.0625 4.6875 34.0625H35.3125C36.5557 34.0625 37.748 33.5686 38.6271 32.6896C39.5061 31.8105 40 30.6182 40 29.375V10.625C40 9.3818 39.5061 8.18951 38.6271 7.31044C37.748 6.43136 36.5557 5.9375 35.3125 5.9375ZM38.125 29.375C38.125 30.1209 37.8287 30.8363 37.3012 31.3637C36.7738 31.8912 36.0584 32.1875 35.3125 32.1875H4.6875C3.94158 32.1875 3.22621 31.8912 2.69876 31.3637C2.17132 30.8363 1.875 30.1209 1.875 29.375V10.625C1.875 9.87908 2.17132 9.16371 2.69876 8.63626C3.22621 8.10882 3.94158 7.8125 4.6875 7.8125H35.3125C36.0584 7.8125 36.7738 8.10882 37.3012 8.63626C37.8287 9.16371 38.125 9.87908 38.125 10.625V29.375Z" fill="#CEB2EA"/>
</g>
<defs>
<clipPath id="clip0_1_226">
<rect width="40" height="40" fill="white"/>
</clipPath>
</defs>
</svg>
