<svg width="50" height="50" viewBox="0 0 50 50" fill="none" xmlns="http://www.w3.org/2000/svg">
<g clip-path="url(#clip0_1_216)">
<path d="M25 45.3124C24.7944 45.3136 24.5905 45.2742 24.4001 45.1964C24.2098 45.1187 24.0366 45.0041 23.8906 44.8593L12.8437 33.9218C11.2488 32.3374 9.98308 30.4532 9.11933 28.3776C8.25559 26.3021 7.81091 24.0761 7.81091 21.828C7.81091 19.5799 8.25559 17.354 9.11933 15.2785C9.98308 13.2029 11.2488 11.3187 12.8437 9.73429C16.0813 6.53582 20.449 4.74219 25 4.74219C29.551 4.74219 33.9187 6.53582 37.1563 9.73429C38.7512 11.3187 40.0169 13.2029 40.8807 15.2785C41.7444 17.354 42.1891 19.5799 42.1891 21.828C42.1891 24.0761 41.7444 26.3021 40.8807 28.3776C40.0169 30.4532 38.7512 32.3374 37.1563 33.9218L26.1094 44.8593C25.9634 45.0041 25.7902 45.1187 25.5999 45.1964C25.4095 45.2742 25.2056 45.3136 25 45.3124ZM25 7.81241C21.2707 7.80326 17.6905 9.27581 15.0469 11.9062C13.7449 13.2 12.7116 14.7386 12.0065 16.4334C11.3014 18.1281 10.9384 19.9456 10.9384 21.7812C10.9384 23.6167 11.3014 25.4342 12.0065 27.1289C12.7116 28.8237 13.7449 30.3623 15.0469 31.6562L25 41.5468L34.9531 31.6562C36.2551 30.3623 37.2884 28.8237 37.9935 27.1289C38.6986 25.4342 39.0616 23.6167 39.0616 21.7812C39.0616 19.9456 38.6986 18.1281 37.9935 16.4334C37.2884 14.7386 36.2551 13.2 34.9531 11.9062C32.3095 9.27581 28.7293 7.80326 25 7.81241Z" fill="#CEB2EA"/>
<path d="M25 29.6875C23.4548 29.6875 21.9444 29.2293 20.6596 28.3709C19.3749 27.5124 18.3735 26.2923 17.7822 24.8647C17.1909 23.4372 17.0362 21.8663 17.3376 20.3509C17.6391 18.8354 18.3831 17.4433 19.4757 16.3507C20.5683 15.2581 21.9604 14.5141 23.4759 14.2126C24.9913 13.9112 26.5622 14.0659 27.9897 14.6572C29.4173 15.2485 30.6374 16.2499 31.4959 17.5346C32.3543 18.8194 32.8125 20.3298 32.8125 21.875C32.8125 23.947 31.9894 25.9341 30.5243 27.3993C29.0591 28.8644 27.072 29.6875 25 29.6875ZM25 17.1875C24.0729 17.1875 23.1666 17.4624 22.3958 17.9775C21.6249 18.4926 21.0241 19.2246 20.6693 20.0812C20.3145 20.9377 20.2217 21.8802 20.4026 22.7895C20.5834 23.6988 21.0299 24.534 21.6854 25.1896C22.341 25.8451 23.1762 26.2916 24.0855 26.4724C24.9948 26.6533 25.9373 26.5605 26.7938 26.2057C27.6504 25.8509 28.3825 25.2501 28.8975 24.4792C29.4126 23.7084 29.6875 22.8021 29.6875 21.875C29.6875 20.6318 29.1936 19.4395 28.3146 18.5604C27.4355 17.6814 26.2432 17.1875 25 17.1875Z" fill="#CEB2EA"/>
</g>
<defs>
<clipPath id="clip0_1_216">
<rect width="50" height="50" fill="white"/>
</clipPath>
</defs>
</svg>
