<svg width="40" height="40" viewBox="0 0 40 40" fill="none" xmlns="http://www.w3.org/2000/svg">
<g clip-path="url(#clip0_1_229)">
<path d="M7.5 0.0467644C5.33593 0.460827 2.09375 3.10145 0.749996 5.55458C0.117184 6.70301 -0.0234412 7.46864 0.0859338 9.16395C0.445309 14.9218 3.32031 21.1483 8.3125 27.0311C9.27343 28.164 12.1094 30.9765 13.2422 31.9218C18.9375 36.6874 24.6875 39.3671 30.3828 39.9218C32.0391 40.0858 32.7266 40.0155 33.7812 39.5858C34.8125 39.164 35.7031 38.5233 36.8437 37.3905C38.0234 36.2108 38.7266 35.2968 39.2812 34.2265C39.8047 33.2186 39.9531 32.7343 39.9531 32.0311C39.9609 31.4999 39.9375 31.3983 39.6562 30.8827C39.1016 29.8358 38.0312 28.6874 36.1328 27.1015C34.0625 25.3749 31.6094 23.8046 30.1641 23.2811C28.9687 22.8436 28.2578 22.9686 27.3984 23.7499C26.7969 24.2968 26.4453 24.7733 25.4375 26.3671C24.4687 27.8983 23.8359 28.7733 23.5547 28.953C23.3594 29.078 23.3281 29.0702 22.3203 28.5702C18.2031 26.539 13.4687 21.8046 11.4219 17.6718L10.9141 16.6327L11.0703 16.4218C11.2891 16.1249 12.0312 15.578 13.4766 14.664C15.125 13.6249 15.7344 13.1718 16.2422 12.6093C17.0312 11.7421 17.1562 11.039 16.7187 9.83583C15.8984 7.56239 12.5781 3.05458 10.4062 1.24208C9.21093 0.249889 8.33593 -0.109486 7.5 0.0467644ZM8.5625 2.31239C9.46875 2.91395 11.1406 4.74208 12.5234 6.64051C13.7031 8.26551 14.8203 10.1561 14.9687 10.7968C15.0625 11.203 14.5703 11.5936 11.4375 13.5936C9.89062 14.5858 9.08593 15.5077 8.9375 16.4452C8.875 16.8671 9.09375 17.5077 9.72656 18.7499C11.6484 22.5155 15.4453 26.6171 19.4297 29.2265C20.4609 29.8983 22.4375 30.8905 22.9687 31.0077C23.7344 31.1718 24.4531 30.8749 25.2344 30.0858C25.75 29.5546 26.0391 29.1483 27.3906 27.0311C27.8125 26.3671 28.3437 25.6327 28.5703 25.3983C28.9219 25.0311 29 24.9843 29.1953 25.0311C30.1719 25.2655 33.0781 27.1327 35.0937 28.8202C36.1016 29.664 37.1875 30.7655 37.6328 31.3827C37.9453 31.828 37.9844 31.9218 37.9453 32.1874C37.8437 32.9843 36.8594 34.5311 35.6719 35.7577C34.7891 36.6796 34.1172 37.203 33.2812 37.6249C32.7344 37.8983 32.6328 37.9218 31.8828 37.953C29.0469 38.0702 25.125 36.9999 21.5156 35.1249C12.1406 30.2499 4.1875 20.4686 2.42968 11.6561C2.16406 10.3124 2 8.7577 2.04687 7.99989C2.10937 7.01551 2.70312 5.92176 3.84375 4.71864C4.88281 3.62489 6.22656 2.64051 7.25 2.21864C7.85937 1.96864 8.0625 1.98426 8.5625 2.31239Z" fill="#CEB2EA"/>
</g>
<defs>
<clipPath id="clip0_1_229">
<rect width="40" height="40" fill="white"/>
</clipPath>
</defs>
</svg>
