<svg width="150" height="150" viewBox="0 0 150 150" fill="none" xmlns="http://www.w3.org/2000/svg">
<path d="M22.0477 133.738L10.2656 1.58438H139.734L127.941 133.718L74.9215 148.417L22.0477 133.738Z" fill="#1572B6"/>
<path d="M75.0012 137.182L117.844 125.304L127.923 12.3891H75.0012V137.182Z" fill="#33A9DC"/>
<path d="M75.0012 60.2684H96.4488L97.9301 43.6711H75.0012V27.4629H115.644L115.255 31.8117L111.271 76.4766H75.0012V60.2684Z" fill="white"/>
<path d="M75.0972 102.362L75.0258 102.383L56.9754 97.5094L55.8211 84.5824H39.5531L41.823 110.032L75.0234 119.246L75.0972 119.225V102.362Z" fill="#EBEBEB"/>
<path d="M95.0707 75.791L93.1184 97.4965L75.041 102.376V119.239L108.268 110.031L108.512 107.292L111.332 75.791H95.0707Z" fill="white"/>
<path d="M75.0562 27.4629V43.6711H35.9062L35.5816 40.0289L34.8433 31.8117L34.4554 27.4629H75.0562ZM75.0011 60.2707V76.4789H57.1781L56.8535 72.8367L56.114 64.6195L55.7273 60.2707H75.0011Z" fill="#EBEBEB"/>
</svg>
